<svg xmlns="http://www.w3.org/2000/svg" viewBox="0 0 373.949 309"><defs><style>.a{opacity:0.75;}.b{fill:#5fa9ad;}</style></defs><g class="a" transform="translate(0 -2.866)"><g transform="translate(0 2.866)"><path class="b" d="M279.066,196.961H39.989A21.659,21.659,0,0,1,18.368,177.38L2.684,20.219a5.678,5.678,0,0,1,5.643-6.232H310.75a5.678,5.678,0,0,1,5.643,6.232L300.721,177.38A21.708,21.708,0,0,1,279.066,196.961ZM14.572,25.33l15.06,150.928a10.358,10.358,0,0,0,10.346,9.371H279.066a10.369,10.369,0,0,0,10.357-9.371L304.484,25.33H14.572Z" transform="translate(27.447 112.039)"/><g transform="translate(80.489)"><g transform="translate(0 0.008)"><path class="b" d="M12.78,73.574A5.671,5.671,0,0,1,9.132,63.568L79.91,4.19a5.663,5.663,0,1,1,7.275,8.68L16.407,72.248A5.641,5.641,0,0,1,12.78,73.574Z" transform="translate(-7.103 -2.866)"/></g><g transform="translate(130.854)"><path class="b" d="M95.1,73.581a5.694,5.694,0,0,1-3.637-1.326L20.673,12.877a5.671,5.671,0,0,1,7.286-8.691l70.79,59.378A5.671,5.671,0,0,1,95.1,73.581Z" transform="translate(-18.651 -2.866)"/></g></g><path class="b" d="M354.4,83.674H19.547A19.572,19.572,0,0,1,0,64.126V27.887A19.572,19.572,0,0,1,19.547,8.34H354.4a19.572,19.572,0,0,1,19.547,19.547V64.126A19.565,19.565,0,0,1,354.4,83.674ZM19.547,19.66a8.221,8.221,0,0,0-8.216,8.216V64.115a8.221,8.221,0,0,0,8.216,8.216H354.4a8.229,8.229,0,0,0,8.216-8.216V27.876A8.221,8.221,0,0,0,354.4,19.66Z" transform="translate(0 53.695)"/></g><g transform="translate(99.21 172.077)"><path class="b" d="M14.421,111.285a5.668,5.668,0,0,1-5.666-5.666V23.464a5.666,5.666,0,0,1,11.332,0v82.155A5.653,5.653,0,0,1,14.421,111.285Z" transform="translate(-8.755 -17.798)"/><path class="b" d="M19.251,111.285a5.668,5.668,0,0,1-5.666-5.666V23.464a5.666,5.666,0,0,1,11.332,0v82.155A5.653,5.653,0,0,1,19.251,111.285Z" transform="translate(41.147 -17.798)"/><path class="b" d="M24.081,111.285a5.668,5.668,0,0,1-5.666-5.666V23.464a5.666,5.666,0,0,1,11.332,0v82.155A5.661,5.661,0,0,1,24.081,111.285Z" transform="translate(91.05 -17.798)"/><path class="b" d="M28.911,111.285a5.668,5.668,0,0,1-5.666-5.666V23.464a5.666,5.666,0,0,1,11.332,0v82.155A5.661,5.661,0,0,1,28.911,111.285Z" transform="translate(140.952 -17.798)"/></g></g></svg>