<svg xmlns="http://www.w3.org/2000/svg" viewBox="0 0 52.683 43.903"><defs><style>.a{fill:#5fa9ad;}</style></defs><path class="a" d="M10.005,12.976,20.325,2.654a2.24,2.24,0,0,1,3.822,1.6A2.18,2.18,0,0,1,23.49,5.82l-7.156,7.156Zm26.344,0h6.329L32.359,2.654a2.24,2.24,0,0,0-3.822,1.6,2.18,2.18,0,0,0,.656,1.561Zm8.129,8.781-.035.09-7.9,19.666H16.139l-7.9-19.671-.035-.086Zm8.205-4.39H0v4.39H1.411a3.069,3.069,0,0,1,2.757,1.721l9,22.426H39.513l9-22.421a3.065,3.065,0,0,1,2.757-1.725h1.409Z" transform="translate(0 -2)"/></svg>