<svg xmlns="http://www.w3.org/2000/svg" viewBox="0 0 41.864 34.886"><defs><style>.a{fill:#e3fdfd;}</style></defs><path class="a" d="M7.951,10.722l8.2-8.2a1.78,1.78,0,0,1,3.037,1.275,1.733,1.733,0,0,1-.522,1.24l-5.686,5.686Zm20.934,0h5.029l-8.2-8.2a1.78,1.78,0,0,0-3.037,1.275,1.733,1.733,0,0,0,.522,1.24ZM35.343,17.7l-.028.072L29.039,33.4H12.824L6.55,17.767,6.522,17.7Zm6.52-3.489H0V17.7H1.122a2.439,2.439,0,0,1,2.191,1.368l7.153,17.82H31.4L38.553,19.07A2.435,2.435,0,0,1,40.744,17.7h1.12Z" transform="translate(0 -2)"/></svg>